<mxfile host="app.diagrams.net" modified="2022-09-09T06:29:57.055Z" agent="5.0 (Macintosh; Intel Mac OS X 10_15_7) AppleWebKit/537.36 (KHTML, like Gecko) Chrome/104.0.0.0 Safari/537.36" etag="8uskCVlb65r7sI87S9EZ" version="20.3.0" type="github">
  <diagram id="k-dONBB6mJ90RfhEngiy" name="第 1 页">
    <mxGraphModel dx="1999" dy="1042" grid="1" gridSize="10" guides="1" tooltips="1" connect="1" arrows="1" fold="1" page="1" pageScale="1" pageWidth="827" pageHeight="1169" math="0" shadow="0">
      <root>
        <mxCell id="0" />
        <mxCell id="1" parent="0" />
        <mxCell id="t-leb0LZ0UtdW8h5P7St-3" style="edgeStyle=orthogonalEdgeStyle;rounded=0;orthogonalLoop=1;jettySize=auto;html=1;entryX=0;entryY=0.5;entryDx=0;entryDy=0;" edge="1" parent="1" source="t-leb0LZ0UtdW8h5P7St-1" target="t-leb0LZ0UtdW8h5P7St-2">
          <mxGeometry relative="1" as="geometry" />
        </mxCell>
        <mxCell id="t-leb0LZ0UtdW8h5P7St-10" style="edgeStyle=orthogonalEdgeStyle;rounded=0;orthogonalLoop=1;jettySize=auto;html=1;exitX=1;exitY=0.5;exitDx=0;exitDy=0;entryX=0;entryY=0.5;entryDx=0;entryDy=0;" edge="1" parent="1" source="t-leb0LZ0UtdW8h5P7St-1" target="t-leb0LZ0UtdW8h5P7St-4">
          <mxGeometry relative="1" as="geometry" />
        </mxCell>
        <mxCell id="t-leb0LZ0UtdW8h5P7St-11" style="edgeStyle=orthogonalEdgeStyle;rounded=0;orthogonalLoop=1;jettySize=auto;html=1;exitX=1;exitY=0.5;exitDx=0;exitDy=0;entryX=0;entryY=0.5;entryDx=0;entryDy=0;" edge="1" parent="1" source="t-leb0LZ0UtdW8h5P7St-1" target="t-leb0LZ0UtdW8h5P7St-5">
          <mxGeometry relative="1" as="geometry" />
        </mxCell>
        <mxCell id="t-leb0LZ0UtdW8h5P7St-12" style="edgeStyle=orthogonalEdgeStyle;rounded=0;orthogonalLoop=1;jettySize=auto;html=1;exitX=1;exitY=0.5;exitDx=0;exitDy=0;entryX=0;entryY=0.5;entryDx=0;entryDy=0;" edge="1" parent="1" source="t-leb0LZ0UtdW8h5P7St-1" target="t-leb0LZ0UtdW8h5P7St-6">
          <mxGeometry relative="1" as="geometry" />
        </mxCell>
        <mxCell id="t-leb0LZ0UtdW8h5P7St-13" style="edgeStyle=orthogonalEdgeStyle;rounded=0;orthogonalLoop=1;jettySize=auto;html=1;exitX=1;exitY=0.5;exitDx=0;exitDy=0;entryX=0;entryY=0.5;entryDx=0;entryDy=0;" edge="1" parent="1" source="t-leb0LZ0UtdW8h5P7St-1" target="t-leb0LZ0UtdW8h5P7St-7">
          <mxGeometry relative="1" as="geometry" />
        </mxCell>
        <mxCell id="t-leb0LZ0UtdW8h5P7St-14" style="edgeStyle=orthogonalEdgeStyle;rounded=0;orthogonalLoop=1;jettySize=auto;html=1;exitX=1;exitY=0.5;exitDx=0;exitDy=0;entryX=0;entryY=0.5;entryDx=0;entryDy=0;" edge="1" parent="1" source="t-leb0LZ0UtdW8h5P7St-1" target="t-leb0LZ0UtdW8h5P7St-8">
          <mxGeometry relative="1" as="geometry" />
        </mxCell>
        <mxCell id="t-leb0LZ0UtdW8h5P7St-15" style="edgeStyle=orthogonalEdgeStyle;rounded=0;orthogonalLoop=1;jettySize=auto;html=1;exitX=1;exitY=0.5;exitDx=0;exitDy=0;entryX=0;entryY=0.5;entryDx=0;entryDy=0;" edge="1" parent="1" source="t-leb0LZ0UtdW8h5P7St-1" target="t-leb0LZ0UtdW8h5P7St-9">
          <mxGeometry relative="1" as="geometry" />
        </mxCell>
        <mxCell id="t-leb0LZ0UtdW8h5P7St-1" value="&lt;font style=&quot;font-size: 18px;&quot;&gt;用户线&lt;/font&gt;" style="rounded=1;whiteSpace=wrap;html=1;fillColor=#FFFF99;" vertex="1" parent="1">
          <mxGeometry x="60" y="330" width="100" height="70" as="geometry" />
        </mxCell>
        <mxCell id="t-leb0LZ0UtdW8h5P7St-2" value="&lt;p style=&quot;margin: 0px; font-variant-numeric: normal; font-variant-east-asian: normal; font-stretch: normal; line-height: normal; text-align: start;&quot; class=&quot;p1&quot;&gt;&lt;font face=&quot;PingFang SC&quot;&gt;&lt;span style=&quot;font-size: 14px;&quot;&gt;romwe登录&lt;/span&gt;&lt;/font&gt;&lt;/p&gt;" style="rounded=1;whiteSpace=wrap;html=1;fillColor=#F8CECC;" vertex="1" parent="1">
          <mxGeometry x="210" y="210" width="100" height="40" as="geometry" />
        </mxCell>
        <mxCell id="t-leb0LZ0UtdW8h5P7St-4" value="&lt;p style=&quot;margin: 0px; font-variant-numeric: normal; font-variant-east-asian: normal; font-stretch: normal; line-height: normal; font-family: &amp;quot;PingFang SC&amp;quot;; text-align: start;&quot; class=&quot;p1&quot;&gt;&lt;font style=&quot;font-size: 14px;&quot;&gt;站内信&lt;/font&gt;&lt;/p&gt;" style="rounded=1;whiteSpace=wrap;html=1;fillColor=#99FFCC;" vertex="1" parent="1">
          <mxGeometry x="210" y="260" width="100" height="40" as="geometry" />
        </mxCell>
        <mxCell id="t-leb0LZ0UtdW8h5P7St-5" value="&lt;p style=&quot;margin: 0px; font-variant-numeric: normal; font-variant-east-asian: normal; font-stretch: normal; line-height: normal; text-align: start;&quot; class=&quot;p1&quot;&gt;&lt;font style=&quot;font-size: 14px;&quot;&gt;积分&lt;/font&gt;&lt;/p&gt;" style="rounded=1;whiteSpace=wrap;html=1;fillColor=#CCE5FF;" vertex="1" parent="1">
          <mxGeometry x="210" y="310" width="100" height="40" as="geometry" />
        </mxCell>
        <mxCell id="t-leb0LZ0UtdW8h5P7St-6" value="&lt;p style=&quot;margin: 0px; font-variant-numeric: normal; font-variant-east-asian: normal; font-stretch: normal; line-height: normal; text-align: start;&quot; class=&quot;p1&quot;&gt;&lt;span style=&quot;font-size: 14px;&quot;&gt;个人中心me&lt;/span&gt;&lt;/p&gt;" style="rounded=1;whiteSpace=wrap;html=1;fillColor=#CCCCFF;" vertex="1" parent="1">
          <mxGeometry x="210" y="360" width="100" height="40" as="geometry" />
        </mxCell>
        <mxCell id="t-leb0LZ0UtdW8h5P7St-7" value="&lt;p style=&quot;margin: 0px; font-variant-numeric: normal; font-variant-east-asian: normal; font-stretch: normal; line-height: normal; text-align: start;&quot; class=&quot;p1&quot;&gt;&lt;span style=&quot;font-size: 14px;&quot;&gt;account&lt;/span&gt;&lt;/p&gt;" style="rounded=1;whiteSpace=wrap;html=1;fillColor=#FFCCFF;" vertex="1" parent="1">
          <mxGeometry x="210" y="410" width="100" height="40" as="geometry" />
        </mxCell>
        <mxCell id="t-leb0LZ0UtdW8h5P7St-8" value="&lt;p style=&quot;margin: 0px; font-variant-numeric: normal; font-variant-east-asian: normal; font-stretch: normal; line-height: normal; text-align: start;&quot; class=&quot;p1&quot;&gt;&lt;span style=&quot;font-size: 14px;&quot;&gt;push推送&lt;/span&gt;&lt;/p&gt;" style="rounded=1;whiteSpace=wrap;html=1;fillColor=#FFE6CC;" vertex="1" parent="1">
          <mxGeometry x="210" y="460" width="100" height="40" as="geometry" />
        </mxCell>
        <mxCell id="t-leb0LZ0UtdW8h5P7St-9" value="&lt;div style=&quot;text-align: start;&quot;&gt;&lt;span style=&quot;background-color: initial; font-size: 14px;&quot;&gt;客服中心&lt;/span&gt;&lt;/div&gt;" style="rounded=1;whiteSpace=wrap;html=1;fillColor=#D5E8D4;" vertex="1" parent="1">
          <mxGeometry x="210" y="510" width="100" height="40" as="geometry" />
        </mxCell>
        <mxCell id="t-leb0LZ0UtdW8h5P7St-23" style="edgeStyle=orthogonalEdgeStyle;rounded=0;orthogonalLoop=1;jettySize=auto;html=1;exitX=1;exitY=0.5;exitDx=0;exitDy=0;entryX=0;entryY=0.5;entryDx=0;entryDy=0;" edge="1" parent="1" source="t-leb0LZ0UtdW8h5P7St-16" target="t-leb0LZ0UtdW8h5P7St-18">
          <mxGeometry relative="1" as="geometry" />
        </mxCell>
        <mxCell id="t-leb0LZ0UtdW8h5P7St-24" style="edgeStyle=orthogonalEdgeStyle;rounded=0;orthogonalLoop=1;jettySize=auto;html=1;exitX=1;exitY=0.5;exitDx=0;exitDy=0;entryX=0;entryY=0.5;entryDx=0;entryDy=0;" edge="1" parent="1" source="t-leb0LZ0UtdW8h5P7St-16" target="t-leb0LZ0UtdW8h5P7St-19">
          <mxGeometry relative="1" as="geometry" />
        </mxCell>
        <mxCell id="t-leb0LZ0UtdW8h5P7St-28" style="edgeStyle=orthogonalEdgeStyle;rounded=0;orthogonalLoop=1;jettySize=auto;html=1;exitX=1;exitY=0.5;exitDx=0;exitDy=0;entryX=0;entryY=0.5;entryDx=0;entryDy=0;fontFamily=Helvetica;fontSize=14;" edge="1" parent="1" source="t-leb0LZ0UtdW8h5P7St-16" target="t-leb0LZ0UtdW8h5P7St-17">
          <mxGeometry relative="1" as="geometry" />
        </mxCell>
        <mxCell id="t-leb0LZ0UtdW8h5P7St-29" style="edgeStyle=orthogonalEdgeStyle;rounded=0;orthogonalLoop=1;jettySize=auto;html=1;exitX=1;exitY=0.5;exitDx=0;exitDy=0;entryX=0;entryY=0.5;entryDx=0;entryDy=0;fontFamily=Helvetica;fontSize=14;" edge="1" parent="1" source="t-leb0LZ0UtdW8h5P7St-16" target="t-leb0LZ0UtdW8h5P7St-21">
          <mxGeometry relative="1" as="geometry" />
        </mxCell>
        <mxCell id="t-leb0LZ0UtdW8h5P7St-16" value="&lt;font style=&quot;font-size: 14px;&quot;&gt;支付线&lt;/font&gt;" style="rounded=1;whiteSpace=wrap;html=1;fillColor=#FFFF99;" vertex="1" parent="1">
          <mxGeometry x="350" y="330" width="100" height="70" as="geometry" />
        </mxCell>
        <mxCell id="t-leb0LZ0UtdW8h5P7St-17" value="&lt;font style=&quot;font-size: 14px;&quot;&gt;订单列表&lt;/font&gt;" style="rounded=1;whiteSpace=wrap;html=1;fillColor=#FFE6CC;" vertex="1" parent="1">
          <mxGeometry x="490" y="270" width="100" height="40" as="geometry" />
        </mxCell>
        <mxCell id="t-leb0LZ0UtdW8h5P7St-18" value="&lt;font style=&quot;font-size: 14px;&quot;&gt;订单详情&lt;/font&gt;" style="rounded=1;whiteSpace=wrap;html=1;fillColor=#FFCCFF;" vertex="1" parent="1">
          <mxGeometry x="490" y="330" width="100" height="40" as="geometry" />
        </mxCell>
        <mxCell id="t-leb0LZ0UtdW8h5P7St-19" value="&lt;font style=&quot;font-size: 14px;&quot;&gt;订单退换货&lt;/font&gt;" style="rounded=1;whiteSpace=wrap;html=1;fillColor=#CCFFFF;" vertex="1" parent="1">
          <mxGeometry x="490" y="390" width="100" height="40" as="geometry" />
        </mxCell>
        <mxCell id="t-leb0LZ0UtdW8h5P7St-21" value="&lt;font style=&quot;font-size: 14px;&quot;&gt;地址&lt;/font&gt;" style="rounded=1;whiteSpace=wrap;html=1;fillColor=#E6FFCC;" vertex="1" parent="1">
          <mxGeometry x="490" y="450" width="100" height="40" as="geometry" />
        </mxCell>
      </root>
    </mxGraphModel>
  </diagram>
</mxfile>
